{
	"patcher" : 	{
		"fileversion" : 1,
		"appversion" : 		{
			"major" : 6,
			"minor" : 1,
			"revision" : 7,
			"architecture" : "x86"
		}
,
		"rect" : [ 47.0, 68.0, 1207.0, 656.0 ],
		"bglocked" : 0,
		"openinpresentation" : 0,
		"default_fontsize" : 10.0,
		"default_fontface" : 0,
		"default_fontname" : "Helvetica",
		"gridonopen" : 0,
		"gridsize" : [ 15.0, 15.0 ],
		"gridsnaponopen" : 0,
		"statusbarvisible" : 2,
		"toolbarvisible" : 1,
		"boxanimatetime" : 200,
		"imprint" : 0,
		"enablehscroll" : 1,
		"enablevscroll" : 1,
		"devicewidth" : 0.0,
		"description" : "",
		"digest" : "",
		"tags" : "",
		"boxes" : [ 			{
				"box" : 				{
					"fontname" : "Arial",
					"fontsize" : 12.0,
					"id" : "obj-4",
					"linecount" : 2,
					"maxclass" : "newobj",
					"numinlets" : 11,
					"numoutlets" : 11,
					"outlettype" : [ "", "", "", "", "", "", "", "", "", "", "FullPacket" ],
					"patching_rect" : [ 391.5, 417.0, 565.0, 33.0 ],
					"text" : "o.atomize /flatness /centroid /loudness /noteNumber /energy /ac1 /hiFrqcontent /midEnergy /highEnergy /periodicity"
				}

			}
, 			{
				"box" : 				{
					"fontname" : "Arial",
					"fontsize" : 12.0,
					"id" : "obj-7",
					"maxclass" : "newobj",
					"numinlets" : 1,
					"numoutlets" : 2,
					"outlettype" : [ "FullPacket", "" ],
					"patching_rect" : [ 309.0, 386.0, 117.0, 20.0 ],
					"text" : "portal.audioanalysis",
					"varname" : "portal.audioanalysis"
				}

			}
, 			{
				"box" : 				{
					"fontname" : "Helvetica",
					"fontsize" : 10.0,
					"frgb" : 0.0,
					"id" : "obj-15",
					"maxclass" : "comment",
					"numinlets" : 1,
					"numoutlets" : 0,
					"patching_rect" : [ 660.0, 270.0, 150.0, 16.0 ]
				}

			}
, 			{
				"box" : 				{
					"fontface" : 1,
					"fontname" : "Helvetica",
					"fontsize" : 30.0,
					"frgb" : 0.0,
					"id" : "obj-14",
					"maxclass" : "comment",
					"numinlets" : 1,
					"numoutlets" : 0,
					"patching_rect" : [ 24.5, 18.0, 271.0, 36.0 ],
					"text" : "portal.testSend"
				}

			}
, 			{
				"box" : 				{
					"fontface" : 1,
					"fontname" : "Helvetica",
					"fontsize" : 30.0,
					"frgb" : 0.0,
					"id" : "obj-13",
					"maxclass" : "comment",
					"numinlets" : 1,
					"numoutlets" : 0,
					"patching_rect" : [ 24.5, 69.0, 139.0, 36.0 ],
					"text" : "SOUND"
				}

			}
, 			{
				"box" : 				{
					"fontface" : 1,
					"fontname" : "Helvetica",
					"fontsize" : 30.0,
					"frgb" : 0.0,
					"id" : "obj-12",
					"maxclass" : "comment",
					"numinlets" : 1,
					"numoutlets" : 0,
					"patching_rect" : [ 349.0, 69.0, 115.0, 36.0 ],
					"text" : "VIDEO"
				}

			}
, 			{
				"box" : 				{
					"fontface" : 1,
					"fontname" : "Helvetica",
					"fontsize" : 30.0,
					"frgb" : 0.0,
					"id" : "obj-5",
					"maxclass" : "comment",
					"numinlets" : 1,
					"numoutlets" : 0,
					"patching_rect" : [ 840.0, 69.0, 88.0, 36.0 ],
					"text" : "OSC"
				}

			}
, 			{
				"box" : 				{
					"fontname" : "Helvetica",
					"fontsize" : 10.0,
					"id" : "obj-2",
					"maxclass" : "newobj",
					"numinlets" : 1,
					"numoutlets" : 1,
					"outlettype" : [ "FullPacket" ],
					"patching_rect" : [ 309.0, 463.0, 157.0, 16.0 ],
					"text" : "portal.send \"osc - testtest\" 49321"
				}

			}
, 			{
				"box" : 				{
					"fontname" : "Helvetica",
					"fontsize" : 10.0,
					"id" : "obj-19",
					"maxclass" : "newobj",
					"numinlets" : 1,
					"numoutlets" : 1,
					"outlettype" : [ "jit_matrix" ],
					"patching_rect" : [ 165.0, 271.0, 97.0, 16.0 ],
					"text" : "portal.audioEncode"
				}

			}
, 			{
				"box" : 				{
					"fontname" : "Helvetica",
					"fontsize" : 10.0,
					"id" : "obj-18",
					"maxclass" : "newobj",
					"numinlets" : 1,
					"numoutlets" : 1,
					"outlettype" : [ "jit_matrix" ],
					"patching_rect" : [ 630.0, 232.0, 88.0, 16.0 ],
					"text" : "portal.viprEncode"
				}

			}
, 			{
				"box" : 				{
					"fontname" : "Helvetica",
					"fontsize" : 10.0,
					"id" : "obj-9",
					"maxclass" : "newobj",
					"numinlets" : 1,
					"numoutlets" : 1,
					"outlettype" : [ "FullPacket" ],
					"patching_rect" : [ 840.0, 285.0, 141.0, 16.0 ],
					"text" : "portal.send \"osc - test\" 49323"
				}

			}
, 			{
				"box" : 				{
					"fontname" : "Helvetica",
					"fontsize" : 10.0,
					"id" : "obj-8",
					"maxclass" : "newobj",
					"numinlets" : 1,
					"numoutlets" : 1,
					"outlettype" : [ "FullPacket" ],
					"patching_rect" : [ 629.0, 291.0, 172.0, 16.0 ],
					"text" : "portal.send \"video - backroom\" 9773"
				}

			}
, 			{
				"box" : 				{
					"fontname" : "Helvetica",
					"fontsize" : 10.0,
					"id" : "obj-6",
					"maxclass" : "newobj",
					"numinlets" : 1,
					"numoutlets" : 1,
					"outlettype" : [ "FullPacket" ],
					"patching_rect" : [ 139.0, 324.0, 172.0, 16.0 ],
					"text" : "portal.send \"audio - backroom\" 9224"
				}

			}
, 			{
				"box" : 				{
					"id" : "obj-3",
					"maxclass" : "bpatcher",
					"name" : "jmod.input~.maxpat",
					"numinlets" : 1,
					"numoutlets" : 3,
					"outlettype" : [ "", "signal", "signal" ],
					"patching_rect" : [ 24.5, 112.0, 300.0, 140.0 ],
					"presentation_rect" : [ 0.0, 0.0, 300.0, 140.0 ]
				}

			}
, 			{
				"box" : 				{
					"id" : "obj-1",
					"maxclass" : "bpatcher",
					"name" : "jmod.input%.maxpat",
					"numinlets" : 2,
					"numoutlets" : 2,
					"outlettype" : [ "", "" ],
					"patching_rect" : [ 349.0, 112.0, 300.0, 70.0 ],
					"presentation_rect" : [ 15.0, 15.0, 300.0, 70.0 ]
				}

			}
, 			{
				"box" : 				{
					"fontname" : "Helvetica",
					"fontsize" : 10.0,
					"id" : "obj-32",
					"maxclass" : "number",
					"numinlets" : 1,
					"numoutlets" : 2,
					"outlettype" : [ "int", "bang" ],
					"parameter_enable" : 0,
					"patching_rect" : [ 840.0, 169.0, 50.0, 16.0 ]
				}

			}
, 			{
				"box" : 				{
					"fontname" : "Helvetica",
					"fontsize" : 10.0,
					"id" : "obj-10",
					"maxclass" : "newobj",
					"numinlets" : 2,
					"numoutlets" : 1,
					"outlettype" : [ "bang" ],
					"patching_rect" : [ 840.0, 112.0, 107.0, 16.0 ],
					"text" : "metro 500 @active 1"
				}

			}
, 			{
				"box" : 				{
					"fontname" : "Helvetica",
					"fontsize" : 10.0,
					"id" : "obj-22",
					"maxclass" : "newobj",
					"numinlets" : 2,
					"numoutlets" : 1,
					"outlettype" : [ "int" ],
					"patching_rect" : [ 840.0, 144.0, 73.0, 16.0 ],
					"text" : "random 1000"
				}

			}
, 			{
				"box" : 				{
					"fontname" : "Helvetica",
					"fontsize" : 10.0,
					"id" : "obj-26",
					"maxclass" : "newobj",
					"numinlets" : 1,
					"numoutlets" : 1,
					"outlettype" : [ "FullPacket" ],
					"patching_rect" : [ 840.0, 232.0, 85.0, 16.0 ],
					"text" : "o.pack /random1"
				}

			}
 ],
		"lines" : [ 			{
				"patchline" : 				{
					"destination" : [ "obj-18", 0 ],
					"disabled" : 0,
					"hidden" : 0,
					"source" : [ "obj-1", 1 ]
				}

			}
, 			{
				"patchline" : 				{
					"destination" : [ "obj-22", 0 ],
					"disabled" : 0,
					"hidden" : 0,
					"source" : [ "obj-10", 0 ]
				}

			}
, 			{
				"patchline" : 				{
					"destination" : [ "obj-8", 0 ],
					"disabled" : 0,
					"hidden" : 0,
					"source" : [ "obj-18", 0 ]
				}

			}
, 			{
				"patchline" : 				{
					"destination" : [ "obj-6", 0 ],
					"disabled" : 0,
					"hidden" : 0,
					"source" : [ "obj-19", 0 ]
				}

			}
, 			{
				"patchline" : 				{
					"destination" : [ "obj-32", 0 ],
					"disabled" : 0,
					"hidden" : 0,
					"source" : [ "obj-22", 0 ]
				}

			}
, 			{
				"patchline" : 				{
					"destination" : [ "obj-9", 0 ],
					"disabled" : 0,
					"hidden" : 0,
					"source" : [ "obj-26", 0 ]
				}

			}
, 			{
				"patchline" : 				{
					"destination" : [ "obj-19", 0 ],
					"disabled" : 0,
					"hidden" : 0,
					"source" : [ "obj-3", 1 ]
				}

			}
, 			{
				"patchline" : 				{
					"destination" : [ "obj-7", 0 ],
					"disabled" : 0,
					"hidden" : 0,
					"source" : [ "obj-3", 2 ]
				}

			}
, 			{
				"patchline" : 				{
					"destination" : [ "obj-26", 0 ],
					"disabled" : 0,
					"hidden" : 0,
					"source" : [ "obj-32", 0 ]
				}

			}
, 			{
				"patchline" : 				{
					"destination" : [ "obj-2", 0 ],
					"disabled" : 0,
					"hidden" : 0,
					"source" : [ "obj-7", 0 ]
				}

			}
, 			{
				"patchline" : 				{
					"destination" : [ "obj-4", 0 ],
					"disabled" : 0,
					"hidden" : 0,
					"source" : [ "obj-7", 0 ]
				}

			}
 ],
		"dependency_cache" : [ 			{
				"name" : "jmod.input%.maxpat",
				"bootpath" : "/Applications/Max 6.1/Cycling '74/Cycling '74/Jamoma/modules/video/input%",
				"patcherrelativepath" : "../../../../Applications/Max 6.1/Cycling '74/Cycling '74/Jamoma/modules/video/input%",
				"type" : "JSON",
				"implicit" : 1
			}
, 			{
				"name" : "jalg.input%.maxpat",
				"bootpath" : "/Applications/Max 6.1/Cycling '74/Cycling '74/Jamoma/modules/video/input%",
				"patcherrelativepath" : "../../../../Applications/Max 6.1/Cycling '74/Cycling '74/Jamoma/modules/video/input%",
				"type" : "JSON",
				"implicit" : 1
			}
, 			{
				"name" : "jcom.thru.maxpat",
				"bootpath" : "/Applications/Max 6.1/Cycling '74/Cycling '74/Jamoma/library/components/thru",
				"patcherrelativepath" : "../../../../Applications/Max 6.1/Cycling '74/Cycling '74/Jamoma/library/components/thru",
				"type" : "JSON",
				"implicit" : 1
			}
, 			{
				"name" : "jalg.input%.ui.maxpat",
				"bootpath" : "/Applications/Max 6.1/Cycling '74/Cycling '74/Jamoma/modules/video/input%",
				"patcherrelativepath" : "../../../../Applications/Max 6.1/Cycling '74/Cycling '74/Jamoma/modules/video/input%",
				"type" : "JSON",
				"implicit" : 1
			}
, 			{
				"name" : "jmod.input~.maxpat",
				"bootpath" : "/Applications/Max 6.1/Cycling '74/Cycling '74/Jamoma/modules/audio/input~",
				"patcherrelativepath" : "../../../../Applications/Max 6.1/Cycling '74/Cycling '74/Jamoma/modules/audio/input~",
				"type" : "JSON",
				"implicit" : 1
			}
, 			{
				"name" : "jcom.audioOnOff.maxpat",
				"bootpath" : "/Applications/Max 6.1/Cycling '74/Cycling '74/Jamoma/library/components/audioOnOff",
				"patcherrelativepath" : "../../../../Applications/Max 6.1/Cycling '74/Cycling '74/Jamoma/library/components/audioOnOff",
				"type" : "JSON",
				"implicit" : 1
			}
, 			{
				"name" : "jcom.meter_receive.maxpat",
				"bootpath" : "/Applications/Max 6.1/Cycling '74/Cycling '74/Jamoma/library/components/meter_receive",
				"patcherrelativepath" : "../../../../Applications/Max 6.1/Cycling '74/Cycling '74/Jamoma/library/components/meter_receive",
				"type" : "JSON",
				"implicit" : 1
			}
, 			{
				"name" : "portal.send.maxpat",
				"bootpath" : "/Users/synthesis/syn_audioportal/o4.net_portal",
				"patcherrelativepath" : ".",
				"type" : "JSON",
				"implicit" : 1
			}
, 			{
				"name" : "portal.viprEncode.maxpat",
				"bootpath" : "/Users/synthesis/syn_audioportal/o4.net_portal",
				"patcherrelativepath" : ".",
				"type" : "JSON",
				"implicit" : 1
			}
, 			{
				"name" : "portal.audioEncode.maxpat",
				"bootpath" : "/Users/synthesis/syn_audioportal/o4.net_portal",
				"patcherrelativepath" : ".",
				"type" : "JSON",
				"implicit" : 1
			}
, 			{
				"name" : "portal.audioanalysis.maxpat",
				"bootpath" : "/Users/synthesis/syn_audioportal/BY.AP/portal.audio",
				"patcherrelativepath" : "../BY.AP/portal.audio",
				"type" : "JSON",
				"implicit" : 1
			}
, 			{
				"name" : "compute_desc.maxpat",
				"bootpath" : "/Users/synthesis/o4.Synthesis/O4_ASU/O4.Sonify.ASU/Dependancies/other",
				"patcherrelativepath" : "../../o4.Synthesis/O4_ASU/O4.Sonify.ASU/Dependancies/other",
				"type" : "JSON",
				"implicit" : 1
			}
, 			{
				"name" : "catart.freq2bin.maxpat",
				"bootpath" : "/Users/synthesis/o4.Synthesis/O4_ASU/O4.Sonify.ASU/Dependancies/other",
				"patcherrelativepath" : "../../o4.Synthesis/O4_ASU/O4.Sonify.ASU/Dependancies/other",
				"type" : "JSON",
				"implicit" : 1
			}
, 			{
				"name" : "gb.contact.onset.maxpat",
				"bootpath" : "/Users/synthesis/o4.Synthesis/O4_ASU/O4.Sonify.ASU/Dependancies/other",
				"patcherrelativepath" : "../../o4.Synthesis/O4_ASU/O4.Sonify.ASU/Dependancies/other",
				"type" : "JSON",
				"implicit" : 1
			}
, 			{
				"name" : "thru.maxpat",
				"bootpath" : "/Applications/Max 6.1/patches/m4l-patches/Pluggo for Live resources/patches",
				"patcherrelativepath" : "../../../../Applications/Max 6.1/patches/m4l-patches/Pluggo for Live resources/patches",
				"type" : "JSON",
				"implicit" : 1
			}
, 			{
				"name" : "o.pack.mxo",
				"type" : "iLaX"
			}
, 			{
				"name" : "jcom.ui.mxo",
				"type" : "iLaX"
			}
, 			{
				"name" : "jcom.hub.mxo",
				"type" : "iLaX"
			}
, 			{
				"name" : "jcom.oscroute.mxo",
				"type" : "iLaX"
			}
, 			{
				"name" : "jcom.pass.mxo",
				"type" : "iLaX"
			}
, 			{
				"name" : "jcom.dataspace.mxo",
				"type" : "iLaX"
			}
, 			{
				"name" : "jcom.parameter.mxo",
				"type" : "iLaX"
			}
, 			{
				"name" : "jcom.textslider.mxo",
				"type" : "iLaX"
			}
, 			{
				"name" : "jcom.message.mxo",
				"type" : "iLaX"
			}
, 			{
				"name" : "jcom.in.mxo",
				"type" : "iLaX"
			}
, 			{
				"name" : "jcom.out.mxo",
				"type" : "iLaX"
			}
, 			{
				"name" : "jcom.meter~.mxo",
				"type" : "iLaX"
			}
, 			{
				"name" : "jcom.init.mxo",
				"type" : "iLaX"
			}
, 			{
				"name" : "jcom.return.mxo",
				"type" : "iLaX"
			}
, 			{
				"name" : "jcom.in~.mxo",
				"type" : "iLaX"
			}
, 			{
				"name" : "jcom.out~.mxo",
				"type" : "iLaX"
			}
, 			{
				"name" : "jcom.remote.mxo",
				"type" : "iLaX"
			}
, 			{
				"name" : "jcom.savebang.mxo",
				"type" : "iLaX"
			}
, 			{
				"name" : "zeroconf.resolve.mxo",
				"type" : "iLaX"
			}
, 			{
				"name" : "zeroconf.service.mxo",
				"type" : "iLaX"
			}
, 			{
				"name" : "o.collect.mxo",
				"type" : "iLaX"
			}
, 			{
				"name" : "o.expr.mxo",
				"type" : "iLaX"
			}
, 			{
				"name" : "o.route.mxo",
				"type" : "iLaX"
			}
, 			{
				"name" : "o.var.mxo",
				"type" : "iLaX"
			}
, 			{
				"name" : "o.message.mxo",
				"type" : "iLaX"
			}
, 			{
				"name" : "vipr.mxo",
				"type" : "iLaX"
			}
, 			{
				"name" : "ftm.mess.mxo",
				"type" : "iLaX"
			}
, 			{
				"name" : "gbr.slice~.mxo",
				"type" : "iLaX"
			}
, 			{
				"name" : "ftm.print.mxo",
				"type" : "iLaX"
			}
, 			{
				"name" : "ftm.copy.mxo",
				"type" : "iLaX"
			}
, 			{
				"name" : "ftm.object.mxo",
				"type" : "iLaX"
			}
, 			{
				"name" : "gbr.fft.mxo",
				"type" : "iLaX"
			}
, 			{
				"name" : "gbr.wind=.mxo",
				"type" : "iLaX"
			}
, 			{
				"name" : "ftm.absargs.mxo",
				"type" : "iLaX"
			}
, 			{
				"name" : "gbr.yin.mxo",
				"type" : "iLaX"
			}
, 			{
				"name" : "gbr.resample.mxo",
				"type" : "iLaX"
			}
, 			{
				"name" : "bonk~.mxo",
				"type" : "iLaX"
			}
, 			{
				"name" : "o.prepend.mxo",
				"type" : "iLaX"
			}
, 			{
				"name" : "o.atomize.mxo",
				"type" : "iLaX"
			}
 ]
	}

}
