{
	"patcher" : 	{
		"fileversion" : 1,
		"appversion" : 		{
			"major" : 6,
			"minor" : 1,
			"revision" : 6,
			"architecture" : "x86"
		}
,
		"rect" : [ -153.0, 44.0, 1514.0, 802.0 ],
		"bglocked" : 0,
		"openinpresentation" : 0,
		"default_fontsize" : 10.0,
		"default_fontface" : 0,
		"default_fontname" : "Verdana",
		"gridonopen" : 0,
		"gridsize" : [ 12.0, 12.0 ],
		"gridsnaponopen" : 0,
		"statusbarvisible" : 2,
		"toolbarvisible" : 1,
		"boxanimatetime" : 200,
		"imprint" : 0,
		"enablehscroll" : 1,
		"enablevscroll" : 1,
		"devicewidth" : 0.0,
		"description" : "",
		"digest" : "",
		"tags" : "",
		"boxes" : [ 			{
				"box" : 				{
					"fontname" : "Verdana",
					"fontsize" : 10.0,
					"id" : "obj-40",
					"maxclass" : "newobj",
					"numinlets" : 3,
					"numoutlets" : 0,
					"patching_rect" : [ 575.0, 828.1073, 66.0, 19.0 ],
					"text" : "dac~ 3 4 5"
				}

			}
, 			{
				"box" : 				{
					"bgcolor" : [ 0.403922, 0.403922, 0.403922, 1.0 ],
					"coldcolor" : [ 0.0, 0.658824, 0.0, 1.0 ],
					"id" : "obj-24",
					"maxclass" : "meter~",
					"numinlets" : 1,
					"numoutlets" : 1,
					"outlettype" : [ "float" ],
					"patching_rect" : [ 676.0, 848.245361, 13.0, 70.0 ],
					"tepidcolor" : [ 0.6, 0.729412, 0.0, 1.0 ],
					"warmcolor" : [ 0.85098, 0.85098, 0.0, 1.0 ]
				}

			}
, 			{
				"box" : 				{
					"bgcolor" : [ 0.403922, 0.403922, 0.403922, 1.0 ],
					"coldcolor" : [ 0.0, 0.658824, 0.0, 1.0 ],
					"id" : "obj-23",
					"maxclass" : "meter~",
					"numinlets" : 1,
					"numoutlets" : 1,
					"outlettype" : [ "float" ],
					"patching_rect" : [ 716.0, 898.245361, 13.0, 70.0 ],
					"tepidcolor" : [ 0.6, 0.729412, 0.0, 1.0 ],
					"warmcolor" : [ 0.85098, 0.85098, 0.0, 1.0 ]
				}

			}
, 			{
				"box" : 				{
					"bgcolor" : [ 0.403922, 0.403922, 0.403922, 1.0 ],
					"coldcolor" : [ 0.0, 0.658824, 0.0, 1.0 ],
					"id" : "obj-15",
					"maxclass" : "meter~",
					"numinlets" : 1,
					"numoutlets" : 1,
					"outlettype" : [ "float" ],
					"patching_rect" : [ 749.0, 918.245361, 13.0, 70.0 ],
					"tepidcolor" : [ 0.6, 0.729412, 0.0, 1.0 ],
					"warmcolor" : [ 0.85098, 0.85098, 0.0, 1.0 ]
				}

			}
, 			{
				"box" : 				{
					"bgcolor" : [ 0.403922, 0.403922, 0.403922, 1.0 ],
					"coldcolor" : [ 0.0, 0.658824, 0.0, 1.0 ],
					"id" : "obj-34",
					"maxclass" : "meter~",
					"numinlets" : 1,
					"numoutlets" : 1,
					"outlettype" : [ "float" ],
					"patching_rect" : [ 785.0, 898.245361, 13.0, 70.0 ],
					"tepidcolor" : [ 0.6, 0.729412, 0.0, 1.0 ],
					"warmcolor" : [ 0.85098, 0.85098, 0.0, 1.0 ]
				}

			}
, 			{
				"box" : 				{
					"fontname" : "Verdana",
					"fontsize" : 10.0,
					"id" : "obj-35",
					"maxclass" : "newobj",
					"numinlets" : 1,
					"numoutlets" : 8,
					"outlettype" : [ "signal", "signal", "signal", "signal", "signal", "signal", "signal", "signal" ],
					"patcher" : 					{
						"fileversion" : 1,
						"appversion" : 						{
							"major" : 6,
							"minor" : 1,
							"revision" : 6,
							"architecture" : "x86"
						}
,
						"rect" : [ 307.0, 107.0, 536.0, 241.0 ],
						"bglocked" : 0,
						"openinpresentation" : 0,
						"default_fontsize" : 10.0,
						"default_fontface" : 0,
						"default_fontname" : "Verdana",
						"gridonopen" : 0,
						"gridsize" : [ 5.0, 5.0 ],
						"gridsnaponopen" : 0,
						"statusbarvisible" : 2,
						"toolbarvisible" : 1,
						"boxanimatetime" : 200,
						"imprint" : 0,
						"enablehscroll" : 1,
						"enablevscroll" : 1,
						"devicewidth" : 0.0,
						"description" : "",
						"digest" : "",
						"tags" : "",
						"boxes" : [ 							{
								"box" : 								{
									"comment" : "",
									"id" : "obj-4",
									"maxclass" : "outlet",
									"numinlets" : 1,
									"numoutlets" : 0,
									"patching_rect" : [ 384.0, 178.0, 25.0, 25.0 ]
								}

							}
, 							{
								"box" : 								{
									"comment" : "",
									"id" : "obj-5",
									"maxclass" : "outlet",
									"numinlets" : 1,
									"numoutlets" : 0,
									"patching_rect" : [ 435.0, 177.0, 25.0, 25.0 ]
								}

							}
, 							{
								"box" : 								{
									"comment" : "",
									"id" : "obj-2",
									"maxclass" : "outlet",
									"numinlets" : 1,
									"numoutlets" : 0,
									"patching_rect" : [ 291.0, 177.0, 25.0, 25.0 ]
								}

							}
, 							{
								"box" : 								{
									"comment" : "",
									"id" : "obj-3",
									"maxclass" : "outlet",
									"numinlets" : 1,
									"numoutlets" : 0,
									"patching_rect" : [ 342.0, 176.0, 25.0, 25.0 ]
								}

							}
, 							{
								"box" : 								{
									"fontname" : "Verdana",
									"fontsize" : 10.0,
									"id" : "obj-18",
									"maxclass" : "newobj",
									"numinlets" : 2,
									"numoutlets" : 32,
									"outlettype" : [ "signal", "signal", "signal", "signal", "signal", "signal", "signal", "signal", "signal", "signal", "signal", "signal", "signal", "signal", "signal", "signal", "signal", "signal", "signal", "signal", "signal", "signal", "signal", "signal", "signal", "signal", "signal", "signal", "signal", "signal", "signal", "signal" ],
									"patching_rect" : [ 50.0, 90.0, 583.5, 19.0 ],
									"text" : "jcom.multi.out~"
								}

							}
, 							{
								"box" : 								{
									"comment" : "",
									"id" : "obj-1",
									"maxclass" : "inlet",
									"numinlets" : 0,
									"numoutlets" : 1,
									"outlettype" : [ "audio.connect" ],
									"patching_rect" : [ 50.0, 40.0, 25.0, 25.0 ]
								}

							}
, 							{
								"box" : 								{
									"comment" : "",
									"id" : "obj-10",
									"maxclass" : "outlet",
									"numinlets" : 1,
									"numoutlets" : 0,
									"patching_rect" : [ 80.0, 175.0, 25.0, 25.0 ]
								}

							}
, 							{
								"box" : 								{
									"comment" : "",
									"id" : "obj-27",
									"maxclass" : "outlet",
									"numinlets" : 1,
									"numoutlets" : 0,
									"patching_rect" : [ 145.0, 175.0, 25.0, 25.0 ]
								}

							}
, 							{
								"box" : 								{
									"comment" : "",
									"id" : "obj-29",
									"maxclass" : "outlet",
									"numinlets" : 1,
									"numoutlets" : 0,
									"patching_rect" : [ 198.0, 176.0, 25.0, 25.0 ]
								}

							}
, 							{
								"box" : 								{
									"comment" : "",
									"id" : "obj-30",
									"maxclass" : "outlet",
									"numinlets" : 1,
									"numoutlets" : 0,
									"patching_rect" : [ 249.0, 175.0, 25.0, 25.0 ]
								}

							}
 ],
						"lines" : [ 							{
								"patchline" : 								{
									"destination" : [ "obj-18", 0 ],
									"disabled" : 0,
									"hidden" : 0,
									"source" : [ "obj-1", 0 ]
								}

							}
, 							{
								"patchline" : 								{
									"destination" : [ "obj-10", 0 ],
									"disabled" : 0,
									"hidden" : 0,
									"source" : [ "obj-18", 0 ]
								}

							}
, 							{
								"patchline" : 								{
									"destination" : [ "obj-2", 0 ],
									"disabled" : 0,
									"hidden" : 0,
									"source" : [ "obj-18", 4 ]
								}

							}
, 							{
								"patchline" : 								{
									"destination" : [ "obj-27", 0 ],
									"disabled" : 0,
									"hidden" : 0,
									"source" : [ "obj-18", 1 ]
								}

							}
, 							{
								"patchline" : 								{
									"destination" : [ "obj-29", 0 ],
									"disabled" : 0,
									"hidden" : 0,
									"source" : [ "obj-18", 2 ]
								}

							}
, 							{
								"patchline" : 								{
									"destination" : [ "obj-3", 0 ],
									"disabled" : 0,
									"hidden" : 0,
									"source" : [ "obj-18", 5 ]
								}

							}
, 							{
								"patchline" : 								{
									"destination" : [ "obj-30", 0 ],
									"disabled" : 0,
									"hidden" : 0,
									"source" : [ "obj-18", 3 ]
								}

							}
, 							{
								"patchline" : 								{
									"destination" : [ "obj-4", 0 ],
									"disabled" : 0,
									"hidden" : 0,
									"source" : [ "obj-18", 6 ]
								}

							}
, 							{
								"patchline" : 								{
									"destination" : [ "obj-5", 0 ],
									"disabled" : 0,
									"hidden" : 0,
									"source" : [ "obj-18", 7 ]
								}

							}
 ]
					}
,
					"patching_rect" : [ 673.0, 758.245361, 220.0, 19.0 ],
					"saved_object_attributes" : 					{
						"default_fontface" : 0,
						"default_fontname" : "Verdana",
						"default_fontsize" : 10.0,
						"description" : "",
						"digest" : "",
						"fontface" : 0,
						"fontname" : "Verdana",
						"fontsize" : 10.0,
						"globalpatchername" : "",
						"tags" : ""
					}
,
					"text" : "p display_levels"
				}

			}
, 			{
				"box" : 				{
					"bgcolor" : [ 0.403922, 0.403922, 0.403922, 1.0 ],
					"coldcolor" : [ 0.0, 0.658824, 0.0, 1.0 ],
					"id" : "obj-36",
					"maxclass" : "meter~",
					"numinlets" : 1,
					"numoutlets" : 1,
					"outlettype" : [ "float" ],
					"patching_rect" : [ 703.0, 794.245361, 13.0, 70.0 ],
					"tepidcolor" : [ 0.6, 0.729412, 0.0, 1.0 ],
					"warmcolor" : [ 0.85098, 0.85098, 0.0, 1.0 ]
				}

			}
, 			{
				"box" : 				{
					"bgcolor" : [ 0.403922, 0.403922, 0.403922, 1.0 ],
					"coldcolor" : [ 0.0, 0.658824, 0.0, 1.0 ],
					"id" : "obj-37",
					"maxclass" : "meter~",
					"numinlets" : 1,
					"numoutlets" : 1,
					"outlettype" : [ "float" ],
					"patching_rect" : [ 782.0, 794.245361, 13.0, 70.0 ],
					"tepidcolor" : [ 0.6, 0.729412, 0.0, 1.0 ],
					"warmcolor" : [ 0.85098, 0.85098, 0.0, 1.0 ]
				}

			}
, 			{
				"box" : 				{
					"bgcolor" : [ 0.403922, 0.403922, 0.403922, 1.0 ],
					"coldcolor" : [ 0.0, 0.658824, 0.0, 1.0 ],
					"id" : "obj-38",
					"maxclass" : "meter~",
					"numinlets" : 1,
					"numoutlets" : 1,
					"outlettype" : [ "float" ],
					"patching_rect" : [ 812.0, 848.245361, 13.0, 70.0 ],
					"tepidcolor" : [ 0.6, 0.729412, 0.0, 1.0 ],
					"warmcolor" : [ 0.85098, 0.85098, 0.0, 1.0 ]
				}

			}
, 			{
				"box" : 				{
					"bgcolor" : [ 0.403922, 0.403922, 0.403922, 1.0 ],
					"coldcolor" : [ 0.0, 0.658824, 0.0, 1.0 ],
					"id" : "obj-39",
					"maxclass" : "meter~",
					"numinlets" : 1,
					"numoutlets" : 1,
					"outlettype" : [ "float" ],
					"patching_rect" : [ 745.0, 788.245361, 13.0, 70.0 ],
					"tepidcolor" : [ 0.6, 0.729412, 0.0, 1.0 ],
					"warmcolor" : [ 0.85098, 0.85098, 0.0, 1.0 ]
				}

			}
, 			{
				"box" : 				{
					"fontname" : "Verdana",
					"fontsize" : 10.0,
					"id" : "obj-9",
					"maxclass" : "newobj",
					"numinlets" : 1,
					"numoutlets" : 1,
					"outlettype" : [ "" ],
					"patching_rect" : [ 608.0, 535.795044, 297.0, 19.0 ],
					"text" : "jcom.ambimonitor2position @prefix speaker @radius 10."
				}

			}
, 			{
				"box" : 				{
					"fontname" : "Verdana",
					"fontsize" : 10.0,
					"frgb" : 0.0,
					"id" : "obj-16",
					"maxclass" : "comment",
					"numinlets" : 1,
					"numoutlets" : 0,
					"patching_rect" : [ 692.0, 616.245361, 279.0, 19.0 ],
					"text" : "<-- set the parameter for each source independently "
				}

			}
, 			{
				"box" : 				{
					"fontname" : "Verdana",
					"fontsize" : 10.0,
					"id" : "obj-21",
					"maxclass" : "message",
					"numinlets" : 2,
					"numoutlets" : 1,
					"outlettype" : [ "" ],
					"patching_rect" : [ 399.0, 739.245361, 225.0, 17.0 ],
					"text" : "/report"
				}

			}
, 			{
				"box" : 				{
					"fontname" : "Verdana",
					"fontsize" : 10.0,
					"id" : "obj-33",
					"maxclass" : "newobj",
					"numinlets" : 0,
					"numoutlets" : 1,
					"outlettype" : [ "audio.connect" ],
					"patcher" : 					{
						"fileversion" : 1,
						"appversion" : 						{
							"major" : 6,
							"minor" : 1,
							"revision" : 6,
							"architecture" : "x86"
						}
,
						"rect" : [ 25.0, 69.0, 640.0, 480.0 ],
						"bglocked" : 0,
						"openinpresentation" : 0,
						"default_fontsize" : 10.0,
						"default_fontface" : 0,
						"default_fontname" : "Verdana",
						"gridonopen" : 0,
						"gridsize" : [ 5.0, 5.0 ],
						"gridsnaponopen" : 0,
						"statusbarvisible" : 2,
						"toolbarvisible" : 1,
						"boxanimatetime" : 200,
						"imprint" : 0,
						"enablehscroll" : 1,
						"enablevscroll" : 1,
						"devicewidth" : 0.0,
						"description" : "",
						"digest" : "",
						"tags" : "",
						"boxes" : [ 							{
								"box" : 								{
									"bgmode" : 1,
									"id" : "obj-3",
									"maxclass" : "bpatcher",
									"name" : "jmod.input~.maxpat",
									"numinlets" : 1,
									"numoutlets" : 3,
									"outlettype" : [ "", "signal", "signal" ],
									"patching_rect" : [ 351.0, 102.0, 300.0, 140.0 ],
									"presentation_rect" : [ 189.0, 48.0, 300.0, 140.0 ]
								}

							}
, 							{
								"box" : 								{
									"bgmode" : 1,
									"id" : "obj-2",
									"maxclass" : "bpatcher",
									"name" : "jmod.input~.maxpat",
									"numinlets" : 1,
									"numoutlets" : 3,
									"outlettype" : [ "", "signal", "signal" ],
									"patching_rect" : [ 51.0, 102.0, 300.0, 140.0 ],
									"presentation_rect" : [ 174.0, 33.0, 300.0, 140.0 ]
								}

							}
, 							{
								"box" : 								{
									"fontname" : "Verdana",
									"fontsize" : 10.0,
									"id" : "obj-20",
									"maxclass" : "newobj",
									"numinlets" : 32,
									"numoutlets" : 1,
									"outlettype" : [ "audio.connect" ],
									"patching_rect" : [ 79.0, 322.0, 598.0, 19.0 ],
									"text" : "jcom.multi.in~"
								}

							}
, 							{
								"box" : 								{
									"comment" : "",
									"id" : "obj-32",
									"maxclass" : "outlet",
									"numinlets" : 1,
									"numoutlets" : 0,
									"patching_rect" : [ 79.0, 401.0, 25.0, 25.0 ]
								}

							}
 ],
						"lines" : [ 							{
								"patchline" : 								{
									"destination" : [ "obj-20", 0 ],
									"disabled" : 0,
									"hidden" : 0,
									"source" : [ "obj-2", 1 ]
								}

							}
, 							{
								"patchline" : 								{
									"destination" : [ "obj-32", 0 ],
									"disabled" : 0,
									"hidden" : 0,
									"source" : [ "obj-20", 0 ]
								}

							}
, 							{
								"patchline" : 								{
									"destination" : [ "obj-20", 1 ],
									"disabled" : 0,
									"hidden" : 0,
									"source" : [ "obj-3", 1 ]
								}

							}
 ]
					}
,
					"patching_rect" : [ 673.0, 594.245361, 66.0, 19.0 ],
					"saved_object_attributes" : 					{
						"default_fontface" : 0,
						"default_fontname" : "Verdana",
						"default_fontsize" : 10.0,
						"description" : "",
						"digest" : "",
						"fontface" : 0,
						"fontname" : "Verdana",
						"fontsize" : 10.0,
						"globalpatchername" : "",
						"tags" : ""
					}
,
					"text" : "p audioIn~"
				}

			}
, 			{
				"box" : 				{
					"fontname" : "Verdana",
					"fontsize" : 10.0,
					"id" : "obj-7",
					"maxclass" : "newobj",
					"numinlets" : 1,
					"numoutlets" : 1,
					"outlettype" : [ "" ],
					"patching_rect" : [ 392.0, 570.467651, 291.0, 19.0 ],
					"text" : "jcom.ambimonitor2position @prefix source @radius 10."
				}

			}
, 			{
				"box" : 				{
					"args" : [ "ambisonics~" ],
					"id" : "obj-22",
					"lockeddragscroll" : 1,
					"maxclass" : "bpatcher",
					"name" : "jmod.sur.ambisonics~.maxpat",
					"numinlets" : 3,
					"numoutlets" : 3,
					"outlettype" : [ "", "audio.connect", "audio.connect" ],
					"patching_rect" : [ 392.0, 616.245361, 300.0, 105.0 ],
					"presentation_rect" : [ 15.0, 15.0, 300.0, 105.0 ]
				}

			}
, 			{
				"box" : 				{
					"fontname" : "Verdana",
					"fontsize" : 10.0,
					"id" : "obj-74",
					"maxclass" : "newobj",
					"numinlets" : 0,
					"numoutlets" : 1,
					"outlettype" : [ "" ],
					"patcher" : 					{
						"fileversion" : 1,
						"appversion" : 						{
							"major" : 6,
							"minor" : 1,
							"revision" : 6,
							"architecture" : "x86"
						}
,
						"rect" : [ 646.0, 44.0, 640.0, 480.0 ],
						"bglocked" : 0,
						"openinpresentation" : 0,
						"default_fontsize" : 12.0,
						"default_fontface" : 0,
						"default_fontname" : "Arial",
						"gridonopen" : 0,
						"gridsize" : [ 15.0, 15.0 ],
						"gridsnaponopen" : 0,
						"statusbarvisible" : 2,
						"toolbarvisible" : 1,
						"boxanimatetime" : 200,
						"imprint" : 0,
						"enablehscroll" : 1,
						"enablevscroll" : 1,
						"devicewidth" : 0.0,
						"description" : "",
						"digest" : "",
						"tags" : "",
						"visible" : 1,
						"boxes" : [ 							{
								"box" : 								{
									"fontname" : "Arial",
									"fontsize" : 12.0,
									"id" : "obj-49",
									"maxclass" : "newobj",
									"numinlets" : 1,
									"numoutlets" : 1,
									"outlettype" : [ "" ],
									"patching_rect" : [ 450.391815, 240.0, 86.0, 20.0 ],
									"text" : "prepend xyz 4"
								}

							}
, 							{
								"box" : 								{
									"fontname" : "Arial",
									"fontsize" : 12.0,
									"id" : "obj-51",
									"maxclass" : "newobj",
									"numinlets" : 3,
									"numoutlets" : 1,
									"outlettype" : [ "" ],
									"patching_rect" : [ 450.391815, 148.0, 70.0, 20.0 ],
									"text" : "pak 0. 0. 0."
								}

							}
, 							{
								"box" : 								{
									"fontname" : "Arial",
									"fontsize" : 12.0,
									"id" : "obj-52",
									"maxclass" : "newobj",
									"numinlets" : 4,
									"numoutlets" : 4,
									"outlettype" : [ "", "", "", "FullPacket" ],
									"patching_rect" : [ 450.391815, 112.0, 90.543861, 20.0 ],
									"text" : "o.route /x /y /z"
								}

							}
, 							{
								"box" : 								{
									"fontname" : "Arial",
									"fontsize" : 12.0,
									"id" : "obj-54",
									"maxclass" : "newobj",
									"numinlets" : 1,
									"numoutlets" : 1,
									"outlettype" : [ "" ],
									"patching_rect" : [ 329.5, 240.0, 86.0, 20.0 ],
									"text" : "prepend xyz 3"
								}

							}
, 							{
								"box" : 								{
									"fontname" : "Arial",
									"fontsize" : 12.0,
									"id" : "obj-56",
									"maxclass" : "newobj",
									"numinlets" : 3,
									"numoutlets" : 1,
									"outlettype" : [ "" ],
									"patching_rect" : [ 329.5, 148.0, 70.0, 20.0 ],
									"text" : "pak 0. 0. 0."
								}

							}
, 							{
								"box" : 								{
									"fontname" : "Arial",
									"fontsize" : 12.0,
									"id" : "obj-57",
									"maxclass" : "newobj",
									"numinlets" : 4,
									"numoutlets" : 4,
									"outlettype" : [ "", "", "", "FullPacket" ],
									"patching_rect" : [ 331.152039, 112.0, 90.543861, 20.0 ],
									"text" : "o.route /x /y /z"
								}

							}
, 							{
								"box" : 								{
									"fontname" : "Arial",
									"fontsize" : 12.0,
									"id" : "obj-58",
									"maxclass" : "newobj",
									"numinlets" : 2,
									"numoutlets" : 2,
									"outlettype" : [ "", "FullPacket" ],
									"patching_rect" : [ 331.152039, 82.0, 61.0, 20.0 ],
									"text" : "o.route /3"
								}

							}
, 							{
								"box" : 								{
									"fontname" : "Arial",
									"fontsize" : 12.0,
									"id" : "obj-59",
									"maxclass" : "newobj",
									"numinlets" : 2,
									"numoutlets" : 2,
									"outlettype" : [ "", "FullPacket" ],
									"patching_rect" : [ 450.391815, 82.0, 61.0, 20.0 ],
									"text" : "o.route /4"
								}

							}
, 							{
								"box" : 								{
									"fontname" : "Arial",
									"fontsize" : 12.0,
									"id" : "obj-44",
									"maxclass" : "newobj",
									"numinlets" : 1,
									"numoutlets" : 1,
									"outlettype" : [ "" ],
									"patching_rect" : [ 231.391815, 240.0, 86.0, 20.0 ],
									"text" : "prepend xyz 2"
								}

							}
, 							{
								"box" : 								{
									"fontname" : "Arial",
									"fontsize" : 12.0,
									"id" : "obj-46",
									"maxclass" : "newobj",
									"numinlets" : 3,
									"numoutlets" : 1,
									"outlettype" : [ "" ],
									"patching_rect" : [ 231.391815, 148.0, 70.0, 20.0 ],
									"text" : "pak 0. 0. 0."
								}

							}
, 							{
								"box" : 								{
									"fontname" : "Arial",
									"fontsize" : 12.0,
									"id" : "obj-47",
									"maxclass" : "newobj",
									"numinlets" : 4,
									"numoutlets" : 4,
									"outlettype" : [ "", "", "", "FullPacket" ],
									"patching_rect" : [ 231.391815, 112.0, 90.543861, 20.0 ],
									"text" : "o.route /x /y /z"
								}

							}
, 							{
								"box" : 								{
									"fontname" : "Arial",
									"fontsize" : 12.0,
									"id" : "obj-41",
									"maxclass" : "newobj",
									"numinlets" : 1,
									"numoutlets" : 1,
									"outlettype" : [ "" ],
									"patching_rect" : [ 110.5, 240.0, 86.0, 20.0 ],
									"text" : "prepend xyz 1"
								}

							}
, 							{
								"box" : 								{
									"fontname" : "Arial",
									"fontsize" : 12.0,
									"id" : "obj-29",
									"maxclass" : "newobj",
									"numinlets" : 3,
									"numoutlets" : 1,
									"outlettype" : [ "" ],
									"patching_rect" : [ 110.5, 148.0, 70.0, 20.0 ],
									"text" : "pak 0. 0. 0."
								}

							}
, 							{
								"box" : 								{
									"fontname" : "Arial",
									"fontsize" : 12.0,
									"id" : "obj-24",
									"maxclass" : "newobj",
									"numinlets" : 4,
									"numoutlets" : 4,
									"outlettype" : [ "", "", "", "FullPacket" ],
									"patching_rect" : [ 112.152046, 112.0, 90.543861, 20.0 ],
									"text" : "o.route /x /y /z"
								}

							}
, 							{
								"box" : 								{
									"fontname" : "Arial",
									"fontsize" : 12.0,
									"id" : "obj-25",
									"maxclass" : "newobj",
									"numinlets" : 2,
									"numoutlets" : 2,
									"outlettype" : [ "", "FullPacket" ],
									"patching_rect" : [ 112.152046, 82.0, 61.0, 20.0 ],
									"text" : "o.route /1"
								}

							}
, 							{
								"box" : 								{
									"fontname" : "Arial",
									"fontsize" : 12.0,
									"id" : "obj-8",
									"maxclass" : "newobj",
									"numinlets" : 2,
									"numoutlets" : 2,
									"outlettype" : [ "", "FullPacket" ],
									"patching_rect" : [ 231.391815, 82.0, 65.543854, 20.0 ],
									"text" : "o.route /2"
								}

							}
, 							{
								"box" : 								{
									"fontname" : "Arial",
									"fontsize" : 12.0,
									"id" : "obj-7",
									"maxclass" : "newobj",
									"numinlets" : 2,
									"numoutlets" : 2,
									"outlettype" : [ "", "FullPacket" ],
									"patching_rect" : [ 112.152046, 40.0, 91.0, 20.0 ],
									"text" : "o.route /source"
								}

							}
, 							{
								"box" : 								{
									"comment" : "",
									"id" : "obj-3",
									"maxclass" : "outlet",
									"numinlets" : 1,
									"numoutlets" : 0,
									"patching_rect" : [ 110.5, 294.0, 25.0, 25.0 ]
								}

							}
, 							{
								"box" : 								{
									"fontname" : "Verdana",
									"fontsize" : 10.0,
									"id" : "obj-72",
									"maxclass" : "newobj",
									"numinlets" : 1,
									"numoutlets" : 1,
									"outlettype" : [ "" ],
									"patching_rect" : [ 112.152046, 10.89682, 133.0, 19.0 ],
									"text" : "udpreceive 9500 CNMAT"
								}

							}
 ],
						"lines" : [ 							{
								"patchline" : 								{
									"destination" : [ "obj-29", 2 ],
									"disabled" : 0,
									"hidden" : 0,
									"source" : [ "obj-24", 2 ]
								}

							}
, 							{
								"patchline" : 								{
									"destination" : [ "obj-29", 1 ],
									"disabled" : 0,
									"hidden" : 0,
									"source" : [ "obj-24", 1 ]
								}

							}
, 							{
								"patchline" : 								{
									"destination" : [ "obj-29", 0 ],
									"disabled" : 0,
									"hidden" : 0,
									"source" : [ "obj-24", 0 ]
								}

							}
, 							{
								"patchline" : 								{
									"destination" : [ "obj-24", 0 ],
									"disabled" : 0,
									"hidden" : 0,
									"source" : [ "obj-25", 0 ]
								}

							}
, 							{
								"patchline" : 								{
									"destination" : [ "obj-41", 0 ],
									"disabled" : 0,
									"hidden" : 0,
									"source" : [ "obj-29", 0 ]
								}

							}
, 							{
								"patchline" : 								{
									"destination" : [ "obj-3", 0 ],
									"disabled" : 0,
									"hidden" : 0,
									"source" : [ "obj-41", 0 ]
								}

							}
, 							{
								"patchline" : 								{
									"destination" : [ "obj-3", 0 ],
									"disabled" : 0,
									"hidden" : 0,
									"source" : [ "obj-44", 0 ]
								}

							}
, 							{
								"patchline" : 								{
									"destination" : [ "obj-44", 0 ],
									"disabled" : 0,
									"hidden" : 0,
									"source" : [ "obj-46", 0 ]
								}

							}
, 							{
								"patchline" : 								{
									"destination" : [ "obj-46", 2 ],
									"disabled" : 0,
									"hidden" : 0,
									"source" : [ "obj-47", 2 ]
								}

							}
, 							{
								"patchline" : 								{
									"destination" : [ "obj-46", 1 ],
									"disabled" : 0,
									"hidden" : 0,
									"source" : [ "obj-47", 1 ]
								}

							}
, 							{
								"patchline" : 								{
									"destination" : [ "obj-46", 0 ],
									"disabled" : 0,
									"hidden" : 0,
									"source" : [ "obj-47", 0 ]
								}

							}
, 							{
								"patchline" : 								{
									"destination" : [ "obj-3", 0 ],
									"disabled" : 0,
									"hidden" : 0,
									"source" : [ "obj-49", 0 ]
								}

							}
, 							{
								"patchline" : 								{
									"destination" : [ "obj-49", 0 ],
									"disabled" : 0,
									"hidden" : 0,
									"source" : [ "obj-51", 0 ]
								}

							}
, 							{
								"patchline" : 								{
									"destination" : [ "obj-51", 2 ],
									"disabled" : 0,
									"hidden" : 0,
									"source" : [ "obj-52", 2 ]
								}

							}
, 							{
								"patchline" : 								{
									"destination" : [ "obj-51", 1 ],
									"disabled" : 0,
									"hidden" : 0,
									"source" : [ "obj-52", 1 ]
								}

							}
, 							{
								"patchline" : 								{
									"destination" : [ "obj-51", 0 ],
									"disabled" : 0,
									"hidden" : 0,
									"source" : [ "obj-52", 0 ]
								}

							}
, 							{
								"patchline" : 								{
									"destination" : [ "obj-3", 0 ],
									"disabled" : 0,
									"hidden" : 0,
									"source" : [ "obj-54", 0 ]
								}

							}
, 							{
								"patchline" : 								{
									"destination" : [ "obj-54", 0 ],
									"disabled" : 0,
									"hidden" : 0,
									"source" : [ "obj-56", 0 ]
								}

							}
, 							{
								"patchline" : 								{
									"destination" : [ "obj-56", 2 ],
									"disabled" : 0,
									"hidden" : 0,
									"source" : [ "obj-57", 2 ]
								}

							}
, 							{
								"patchline" : 								{
									"destination" : [ "obj-56", 1 ],
									"disabled" : 0,
									"hidden" : 0,
									"source" : [ "obj-57", 1 ]
								}

							}
, 							{
								"patchline" : 								{
									"destination" : [ "obj-56", 0 ],
									"disabled" : 0,
									"hidden" : 0,
									"source" : [ "obj-57", 0 ]
								}

							}
, 							{
								"patchline" : 								{
									"destination" : [ "obj-57", 0 ],
									"disabled" : 0,
									"hidden" : 0,
									"source" : [ "obj-58", 0 ]
								}

							}
, 							{
								"patchline" : 								{
									"destination" : [ "obj-52", 0 ],
									"disabled" : 0,
									"hidden" : 0,
									"source" : [ "obj-59", 0 ]
								}

							}
, 							{
								"patchline" : 								{
									"destination" : [ "obj-25", 0 ],
									"disabled" : 0,
									"hidden" : 0,
									"source" : [ "obj-7", 0 ]
								}

							}
, 							{
								"patchline" : 								{
									"destination" : [ "obj-58", 0 ],
									"disabled" : 0,
									"hidden" : 0,
									"source" : [ "obj-7", 0 ]
								}

							}
, 							{
								"patchline" : 								{
									"destination" : [ "obj-59", 0 ],
									"disabled" : 0,
									"hidden" : 0,
									"source" : [ "obj-7", 0 ]
								}

							}
, 							{
								"patchline" : 								{
									"destination" : [ "obj-8", 0 ],
									"disabled" : 0,
									"hidden" : 0,
									"source" : [ "obj-7", 0 ]
								}

							}
, 							{
								"patchline" : 								{
									"destination" : [ "obj-7", 0 ],
									"disabled" : 0,
									"hidden" : 0,
									"source" : [ "obj-72", 0 ]
								}

							}
, 							{
								"patchline" : 								{
									"destination" : [ "obj-47", 0 ],
									"disabled" : 0,
									"hidden" : 0,
									"source" : [ "obj-8", 0 ]
								}

							}
 ]
					}
,
					"patching_rect" : [ 392.0, 158.10025, 131.0, 19.0 ],
					"saved_object_attributes" : 					{
						"default_fontface" : 0,
						"default_fontname" : "Arial",
						"default_fontsize" : 12.0,
						"description" : "",
						"digest" : "",
						"fontface" : 0,
						"fontname" : "Arial",
						"fontsize" : 12.0,
						"globalpatchername" : "",
						"tags" : ""
					}
,
					"text" : "p lorkas.ambicord.route"
				}

			}
, 			{
				"box" : 				{
					"bgcolor" : [ 0.0, 0.0, 0.25098, 1.0 ],
					"coldcolor" : [ 0.552941, 1.0, 0.803922, 1.0 ],
					"hotcolor" : [ 0.811765, 0.356863, 0.635294, 1.0 ],
					"id" : "obj-67",
					"maxclass" : "meter~",
					"ntepidleds" : 5,
					"numinlets" : 1,
					"numleds" : 18,
					"numoutlets" : 1,
					"outlettype" : [ "float" ],
					"overloadcolor" : [ 1.0, 0.498039, 0.0, 1.0 ],
					"patching_rect" : [ 1042.300781, 837.6073, 14.0, 74.0 ],
					"presentation" : 1,
					"presentation_rect" : [ 848.0, 301.361938, 14.0, 74.0 ],
					"tepidcolor" : [ 0.270588, 0.694118, 0.898039, 1.0 ],
					"warmcolor" : [ 0.388235, 0.168627, 1.0, 1.0 ]
				}

			}
, 			{
				"box" : 				{
					"bgcolor" : [ 0.0, 0.0, 0.25098, 1.0 ],
					"coldcolor" : [ 0.552941, 1.0, 0.803922, 1.0 ],
					"hotcolor" : [ 0.811765, 0.356863, 0.635294, 1.0 ],
					"id" : "obj-69",
					"maxclass" : "meter~",
					"ntepidleds" : 5,
					"numinlets" : 1,
					"numleds" : 18,
					"numoutlets" : 1,
					"outlettype" : [ "float" ],
					"overloadcolor" : [ 1.0, 0.498039, 0.0, 1.0 ],
					"patching_rect" : [ 1042.300781, 752.6073, 14.0, 74.0 ],
					"presentation" : 1,
					"presentation_rect" : [ 848.0, 216.361938, 14.0, 74.0 ],
					"tepidcolor" : [ 0.270588, 0.694118, 0.898039, 1.0 ],
					"warmcolor" : [ 0.388235, 0.168627, 1.0, 1.0 ]
				}

			}
, 			{
				"box" : 				{
					"bgcolor" : [ 0.0, 0.0, 0.25098, 1.0 ],
					"coldcolor" : [ 0.552941, 1.0, 0.803922, 1.0 ],
					"hotcolor" : [ 0.811765, 0.356863, 0.635294, 1.0 ],
					"id" : "obj-70",
					"maxclass" : "meter~",
					"ntepidleds" : 5,
					"numinlets" : 1,
					"numleds" : 18,
					"numoutlets" : 1,
					"outlettype" : [ "float" ],
					"overloadcolor" : [ 1.0, 0.498039, 0.0, 1.0 ],
					"patching_rect" : [ 968.288818, 790.462891, 14.0, 74.0 ],
					"presentation" : 1,
					"presentation_rect" : [ 773.988037, 254.217468, 14.0, 74.0 ],
					"tepidcolor" : [ 0.270588, 0.694118, 0.898039, 1.0 ],
					"warmcolor" : [ 0.388235, 0.168627, 1.0, 1.0 ]
				}

			}
, 			{
				"box" : 				{
					"fontname" : "Verdana",
					"fontsize" : 10.0,
					"hidden" : 1,
					"id" : "obj-18",
					"maxclass" : "newobj",
					"numinlets" : 2,
					"numoutlets" : 1,
					"outlettype" : [ "bang" ],
					"patching_rect" : [ 869.439941, 286.922211, 54.0, 19.0 ],
					"text" : "del 2000"
				}

			}
, 			{
				"box" : 				{
					"fontname" : "Verdana",
					"fontsize" : 10.0,
					"hidden" : 1,
					"id" : "obj-19",
					"maxclass" : "message",
					"numinlets" : 2,
					"numoutlets" : 1,
					"outlettype" : [ "" ],
					"patching_rect" : [ 869.439941, 309.239716, 82.0, 17.0 ],
					"text" : "symbol iStage"
				}

			}
, 			{
				"box" : 				{
					"fontname" : "Verdana",
					"fontsize" : 10.0,
					"hidden" : 1,
					"id" : "obj-25",
					"maxclass" : "newobj",
					"numinlets" : 1,
					"numoutlets" : 1,
					"outlettype" : [ "bang" ],
					"patching_rect" : [ 903.621338, 240.055573, 54.0, 19.0 ],
					"text" : "loadbang"
				}

			}
, 			{
				"box" : 				{
					"fontname" : "Verdana",
					"fontsize" : 10.0,
					"hidden" : 1,
					"id" : "obj-26",
					"maxclass" : "message",
					"numinlets" : 2,
					"numoutlets" : 1,
					"outlettype" : [ "" ],
					"patching_rect" : [ 868.337158, 334.904755, 109.0, 17.0 ],
					"text" : "read snapshots.xml"
				}

			}
, 			{
				"box" : 				{
					"bgcolor" : [ 0.0, 0.0, 0.247059, 1.0 ],
					"bgcolor2" : [ 0.356863, 0.356863, 0.356863, 1.0 ],
					"discolor" : [ 0.439216, 0.439216, 0.439216, 1.0 ],
					"fontname" : "Verdana",
					"fontsize" : 10.0,
					"framecolor" : [ 0.015686, 0.015686, 0.015686, 1.0 ],
					"hltcolor" : [ 0.0, 0.0, 0.247059, 1.0 ],
					"id" : "obj-27",
					"items" : [ "square", ",", "hexagon", ",", "octagon", ",", "3D_cube", ",", "5.1_ITU", ",", "iStage" ],
					"maxclass" : "umenu",
					"numinlets" : 1,
					"numoutlets" : 3,
					"outlettype" : [ "int", "", "" ],
					"parameter_enable" : 0,
					"patching_rect" : [ 852.288818, 386.150146, 91.0, 19.0 ],
					"textcolor" : [ 1.0, 1.0, 1.0, 1.0 ],
					"textcolor2" : [ 1.0, 1.0, 1.0, 1.0 ],
					"togcolor" : [ 0.552941, 0.552941, 0.552941, 1.0 ]
				}

			}
, 			{
				"box" : 				{
					"fontname" : "Verdana",
					"fontsize" : 10.0,
					"id" : "obj-28",
					"maxclass" : "newobj",
					"numinlets" : 1,
					"numoutlets" : 0,
					"patching_rect" : [ 852.288818, 422.467651, 104.0, 19.0 ],
					"text" : "s speaker_monitor"
				}

			}
, 			{
				"box" : 				{
					"fontname" : "Verdana",
					"fontsize" : 10.0,
					"hidden" : 1,
					"id" : "obj-30",
					"maxclass" : "newobj",
					"numinlets" : 0,
					"numoutlets" : 1,
					"outlettype" : [ "" ],
					"patching_rect" : [ 608.0, 158.10025, 104.0, 19.0 ],
					"text" : "r speaker_monitor"
				}

			}
, 			{
				"box" : 				{
					"bgcolor" : [ 0.247059, 0.247059, 0.247059, 1.0 ],
					"bgcolor2" : [ 0.356863, 0.356863, 0.356863, 1.0 ],
					"discolor" : [ 0.439216, 0.439216, 0.439216, 1.0 ],
					"fontname" : "Verdana",
					"fontsize" : 10.0,
					"framecolor" : [ 0.015686, 0.015686, 0.015686, 1.0 ],
					"hltcolor" : [ 0.247059, 0.247059, 0.247059, 1.0 ],
					"id" : "obj-31",
					"items" : [ "read", ",", "write" ],
					"maxclass" : "umenu",
					"numinlets" : 1,
					"numoutlets" : 3,
					"outlettype" : [ "int", "", "" ],
					"parameter_enable" : 0,
					"patching_rect" : [ 812.0, 342.673065, 54.0, 19.0 ],
					"textcolor" : [ 1.0, 1.0, 1.0, 1.0 ],
					"textcolor2" : [ 1.0, 1.0, 1.0, 1.0 ],
					"togcolor" : [ 0.552941, 0.552941, 0.552941, 1.0 ]
				}

			}
, 			{
				"box" : 				{
					"bgcolor" : [ 0.0, 0.0, 0.25098, 1.0 ],
					"coldcolor" : [ 0.552941, 1.0, 0.803922, 1.0 ],
					"hotcolor" : [ 0.811765, 0.356863, 0.635294, 1.0 ],
					"id" : "obj-47",
					"maxclass" : "meter~",
					"ntepidleds" : 5,
					"numinlets" : 1,
					"numleds" : 18,
					"numoutlets" : 1,
					"outlettype" : [ "float" ],
					"overloadcolor" : [ 1.0, 0.498039, 0.0, 1.0 ],
					"patching_rect" : [ 897.950684, 747.070801, 14.0, 74.0 ],
					"presentation" : 1,
					"presentation_rect" : [ 703.649902, 210.825439, 14.0, 74.0 ],
					"tepidcolor" : [ 0.270588, 0.694118, 0.898039, 1.0 ],
					"warmcolor" : [ 0.388235, 0.168627, 1.0, 1.0 ]
				}

			}
, 			{
				"box" : 				{
					"bgcolor" : [ 0.0, 0.0, 0.25098, 1.0 ],
					"coldcolor" : [ 0.552941, 1.0, 0.803922, 1.0 ],
					"hotcolor" : [ 0.811765, 0.356863, 0.635294, 1.0 ],
					"id" : "obj-48",
					"maxclass" : "meter~",
					"ntepidleds" : 5,
					"numinlets" : 1,
					"numleds" : 18,
					"numoutlets" : 1,
					"outlettype" : [ "float" ],
					"overloadcolor" : [ 1.0, 0.498039, 0.0, 1.0 ],
					"patching_rect" : [ 897.950684, 843.854858, 14.0, 74.0 ],
					"presentation" : 1,
					"presentation_rect" : [ 703.649902, 307.609497, 14.0, 74.0 ],
					"tepidcolor" : [ 0.270588, 0.694118, 0.898039, 1.0 ],
					"warmcolor" : [ 0.388235, 0.168627, 1.0, 1.0 ]
				}

			}
, 			{
				"box" : 				{
					"bgcolor" : [ 0.0, 0.0, 0.25098, 1.0 ],
					"coldcolor" : [ 0.552941, 1.0, 0.803922, 1.0 ],
					"hotcolor" : [ 0.811765, 0.356863, 0.635294, 1.0 ],
					"id" : "obj-49",
					"maxclass" : "meter~",
					"ntepidleds" : 5,
					"numinlets" : 1,
					"numleds" : 18,
					"numoutlets" : 1,
					"outlettype" : [ "float" ],
					"overloadcolor" : [ 1.0, 0.498039, 0.0, 1.0 ],
					"patching_rect" : [ 973.728027, 918.962891, 14.0, 74.0 ],
					"presentation" : 1,
					"presentation_rect" : [ 779.427246, 382.717468, 14.0, 74.0 ],
					"tepidcolor" : [ 0.270588, 0.694118, 0.898039, 1.0 ],
					"warmcolor" : [ 0.388235, 0.168627, 1.0, 1.0 ]
				}

			}
, 			{
				"box" : 				{
					"bgcolor" : [ 0.0, 0.0, 0.25098, 1.0 ],
					"coldcolor" : [ 0.552941, 1.0, 0.803922, 1.0 ],
					"hotcolor" : [ 0.811765, 0.356863, 0.635294, 1.0 ],
					"id" : "obj-50",
					"maxclass" : "meter~",
					"ntepidleds" : 5,
					"numinlets" : 1,
					"numleds" : 18,
					"numoutlets" : 1,
					"outlettype" : [ "float" ],
					"overloadcolor" : [ 1.0, 0.498039, 0.0, 1.0 ],
					"patching_rect" : [ 1042.300781, 918.962891, 14.0, 74.0 ],
					"presentation" : 1,
					"presentation_rect" : [ 848.0, 382.717468, 14.0, 74.0 ],
					"tepidcolor" : [ 0.270588, 0.694118, 0.898039, 1.0 ],
					"warmcolor" : [ 0.388235, 0.168627, 1.0, 1.0 ]
				}

			}
, 			{
				"box" : 				{
					"bgcolor" : [ 0.0, 0.0, 0.25098, 1.0 ],
					"coldcolor" : [ 0.552941, 1.0, 0.803922, 1.0 ],
					"hotcolor" : [ 0.811765, 0.356863, 0.635294, 1.0 ],
					"id" : "obj-51",
					"maxclass" : "meter~",
					"ntepidleds" : 5,
					"numinlets" : 1,
					"numleds" : 18,
					"numoutlets" : 1,
					"outlettype" : [ "float" ],
					"overloadcolor" : [ 1.0, 0.498039, 0.0, 1.0 ],
					"patching_rect" : [ 1108.173828, 843.854858, 14.0, 74.0 ],
					"presentation" : 1,
					"presentation_rect" : [ 913.872925, 307.609497, 14.0, 74.0 ],
					"tepidcolor" : [ 0.270588, 0.694118, 0.898039, 1.0 ],
					"warmcolor" : [ 0.388235, 0.168627, 1.0, 1.0 ]
				}

			}
, 			{
				"box" : 				{
					"bgcolor" : [ 0.0, 0.0, 0.25098, 1.0 ],
					"coldcolor" : [ 0.552941, 1.0, 0.803922, 1.0 ],
					"hotcolor" : [ 0.811765, 0.356863, 0.635294, 1.0 ],
					"id" : "obj-52",
					"maxclass" : "meter~",
					"ntepidleds" : 5,
					"numinlets" : 1,
					"numleds" : 18,
					"numoutlets" : 1,
					"outlettype" : [ "float" ],
					"overloadcolor" : [ 1.0, 0.498039, 0.0, 1.0 ],
					"patching_rect" : [ 1108.173828, 747.070801, 14.0, 74.0 ],
					"presentation" : 1,
					"presentation_rect" : [ 913.872925, 210.825439, 14.0, 74.0 ],
					"tepidcolor" : [ 0.270588, 0.694118, 0.898039, 1.0 ],
					"warmcolor" : [ 0.388235, 0.168627, 1.0, 1.0 ]
				}

			}
, 			{
				"box" : 				{
					"bgcolor" : [ 0.0, 0.0, 0.25098, 1.0 ],
					"coldcolor" : [ 0.552941, 1.0, 0.803922, 1.0 ],
					"hotcolor" : [ 0.811765, 0.356863, 0.635294, 1.0 ],
					"id" : "obj-53",
					"maxclass" : "meter~",
					"ntepidleds" : 5,
					"numinlets" : 1,
					"numleds" : 18,
					"numoutlets" : 1,
					"outlettype" : [ "float" ],
					"overloadcolor" : [ 1.0, 0.498039, 0.0, 1.0 ],
					"patching_rect" : [ 1042.300781, 668.835815, 14.0, 74.0 ],
					"presentation" : 1,
					"presentation_rect" : [ 848.0, 132.590454, 14.0, 74.0 ],
					"tepidcolor" : [ 0.270588, 0.694118, 0.898039, 1.0 ],
					"warmcolor" : [ 0.388235, 0.168627, 1.0, 1.0 ]
				}

			}
, 			{
				"box" : 				{
					"bgcolor" : [ 0.0, 0.0, 0.25098, 1.0 ],
					"coldcolor" : [ 0.552941, 1.0, 0.803922, 1.0 ],
					"hotcolor" : [ 0.811765, 0.356863, 0.635294, 1.0 ],
					"id" : "obj-54",
					"maxclass" : "meter~",
					"ntepidleds" : 5,
					"numinlets" : 1,
					"numleds" : 18,
					"numoutlets" : 1,
					"outlettype" : [ "float" ],
					"overloadcolor" : [ 1.0, 0.498039, 0.0, 1.0 ],
					"patching_rect" : [ 968.288818, 668.835815, 14.0, 74.0 ],
					"presentation" : 1,
					"presentation_rect" : [ 773.988037, 132.590454, 14.0, 74.0 ],
					"tepidcolor" : [ 0.270588, 0.694118, 0.898039, 1.0 ],
					"warmcolor" : [ 0.388235, 0.168627, 1.0, 1.0 ]
				}

			}
, 			{
				"box" : 				{
					"bgcolor" : [ 0.0, 0.0, 0.175781, 1.0 ],
					"circle_color" : [ 0.246094, 0.246094, 0.246094, 1.0 ],
					"coord_color" : [ 0.816406, 0.816406, 0.816406, 1.0 ],
					"grid" : 2,
					"grid_color" : [ 0.1875, 0.1875, 0.246094, 1.0 ],
					"gridunit_d" : 0.11,
					"hi_grid_color" : [ 0.0, 0.0, 0.175781, 1.0 ],
					"id" : "obj-62",
					"line_color" : [ 0.5, 0.5, 0.5, 1.0 ],
					"maxclass" : "ambimonitor",
					"mode" : 2,
					"name_color" : [ 0.996094, 0.496094, 0.0, 1.0 ],
					"numbers" : 1,
					"numinlets" : 1,
					"numoutlets" : 3,
					"outlettype" : [ "", "", "" ],
					"patching_rect" : [ 392.0, 192.111359, 168.061707, 336.123413 ],
					"point_color" : [ 0.660156, 0.660156, 0.660156, 1.0 ],
					"presentation" : 1,
					"presentation_rect" : [ 40.565643, 55.898407, 326.444458, 652.888916 ],
					"varname" : "source_ctrl"
				}

			}
, 			{
				"box" : 				{
					"bgcolor" : [ 0.246094, 0.246094, 0.246094, 1.0 ],
					"circle_color" : [ 0.0, 0.0, 0.15625, 1.0 ],
					"coord_color" : [ 0.816406, 0.816406, 0.816406, 1.0 ],
					"grid" : 1,
					"grid_color" : [ 0.0, 0.15625, 0.15625, 1.0 ],
					"gridunit_ae" : 8,
					"hi_grid_color" : [ 0.246094, 0.246094, 0.246094, 1.0 ],
					"id" : "obj-32",
					"line_color" : [ 0.066406, 0.101562, 0.382812, 1.0 ],
					"lines" : 1,
					"maxclass" : "ambimonitor",
					"mode" : 2,
					"name_color" : [ 0.679688, 0.679688, 0.679688, 1.0 ],
					"numbers" : 1,
					"numinlets" : 1,
					"numoutlets" : 3,
					"outlettype" : [ "", "", "" ],
					"patching_rect" : [ 608.0, 192.111359, 168.061707, 336.123413 ],
					"point_color" : [ 0.996094, 0.496094, 0.0, 1.0 ],
					"presentation" : 1,
					"presentation_rect" : [ 367.010101, 55.898407, 247.333344, 494.666687 ],
					"varname" : "speaker_ctrl"
				}

			}
 ],
		"lines" : [ 			{
				"patchline" : 				{
					"destination" : [ "obj-19", 0 ],
					"disabled" : 0,
					"hidden" : 1,
					"source" : [ "obj-18", 0 ]
				}

			}
, 			{
				"patchline" : 				{
					"destination" : [ "obj-27", 0 ],
					"disabled" : 0,
					"hidden" : 1,
					"midpoints" : [ 878.939941, 339.557159, 861.788818, 339.557159 ],
					"source" : [ "obj-19", 0 ]
				}

			}
, 			{
				"patchline" : 				{
					"destination" : [ "obj-21", 1 ],
					"disabled" : 0,
					"hidden" : 0,
					"midpoints" : [ 401.5, 732.245361, 614.5, 732.245361 ],
					"source" : [ "obj-22", 0 ]
				}

			}
, 			{
				"patchline" : 				{
					"destination" : [ "obj-35", 0 ],
					"disabled" : 0,
					"hidden" : 0,
					"source" : [ "obj-22", 2 ]
				}

			}
, 			{
				"patchline" : 				{
					"destination" : [ "obj-18", 0 ],
					"disabled" : 0,
					"hidden" : 1,
					"source" : [ "obj-25", 0 ]
				}

			}
, 			{
				"patchline" : 				{
					"destination" : [ "obj-26", 0 ],
					"disabled" : 0,
					"hidden" : 1,
					"midpoints" : [ 913.121338, 332.673004, 877.837158, 332.673004 ],
					"source" : [ "obj-25", 0 ]
				}

			}
, 			{
				"patchline" : 				{
					"destination" : [ "obj-28", 0 ],
					"disabled" : 0,
					"hidden" : 1,
					"midpoints" : [ 877.837158, 365.063507, 861.788818, 365.063507 ],
					"source" : [ "obj-26", 0 ]
				}

			}
, 			{
				"patchline" : 				{
					"destination" : [ "obj-28", 0 ],
					"disabled" : 0,
					"hidden" : 0,
					"midpoints" : [ 897.788818, 418.193024, 861.788818, 418.193024 ],
					"source" : [ "obj-27", 1 ]
				}

			}
, 			{
				"patchline" : 				{
					"destination" : [ "obj-32", 0 ],
					"disabled" : 0,
					"hidden" : 1,
					"source" : [ "obj-30", 0 ]
				}

			}
, 			{
				"patchline" : 				{
					"destination" : [ "obj-28", 0 ],
					"disabled" : 0,
					"hidden" : 0,
					"midpoints" : [ 839.0, 382.947662, 861.788818, 382.947662 ],
					"source" : [ "obj-31", 1 ]
				}

			}
, 			{
				"patchline" : 				{
					"destination" : [ "obj-9", 0 ],
					"disabled" : 0,
					"hidden" : 0,
					"source" : [ "obj-32", 0 ]
				}

			}
, 			{
				"patchline" : 				{
					"destination" : [ "obj-22", 2 ],
					"disabled" : 0,
					"hidden" : 0,
					"source" : [ "obj-33", 0 ]
				}

			}
, 			{
				"patchline" : 				{
					"color" : [ 0.815686, 0.815686, 0.815686, 1.0 ],
					"destination" : [ "obj-15", 0 ],
					"disabled" : 0,
					"hidden" : 0,
					"source" : [ "obj-35", 5 ]
				}

			}
, 			{
				"patchline" : 				{
					"color" : [ 0.815686, 0.815686, 0.815686, 1.0 ],
					"destination" : [ "obj-23", 0 ],
					"disabled" : 0,
					"hidden" : 0,
					"source" : [ "obj-35", 6 ]
				}

			}
, 			{
				"patchline" : 				{
					"color" : [ 0.815686, 0.815686, 0.815686, 1.0 ],
					"destination" : [ "obj-24", 0 ],
					"disabled" : 0,
					"hidden" : 0,
					"source" : [ "obj-35", 7 ]
				}

			}
, 			{
				"patchline" : 				{
					"color" : [ 0.815686, 0.815686, 0.815686, 1.0 ],
					"destination" : [ "obj-34", 0 ],
					"disabled" : 0,
					"hidden" : 0,
					"source" : [ "obj-35", 4 ]
				}

			}
, 			{
				"patchline" : 				{
					"color" : [ 0.815686, 0.815686, 0.815686, 1.0 ],
					"destination" : [ "obj-36", 0 ],
					"disabled" : 0,
					"hidden" : 0,
					"source" : [ "obj-35", 0 ]
				}

			}
, 			{
				"patchline" : 				{
					"color" : [ 0.815686, 0.815686, 0.815686, 1.0 ],
					"destination" : [ "obj-37", 0 ],
					"disabled" : 0,
					"hidden" : 0,
					"source" : [ "obj-35", 2 ]
				}

			}
, 			{
				"patchline" : 				{
					"color" : [ 0.815686, 0.815686, 0.815686, 1.0 ],
					"destination" : [ "obj-38", 0 ],
					"disabled" : 0,
					"hidden" : 0,
					"source" : [ "obj-35", 3 ]
				}

			}
, 			{
				"patchline" : 				{
					"color" : [ 0.815686, 0.815686, 0.815686, 1.0 ],
					"destination" : [ "obj-39", 0 ],
					"disabled" : 0,
					"hidden" : 0,
					"source" : [ "obj-35", 1 ]
				}

			}
, 			{
				"patchline" : 				{
					"destination" : [ "obj-40", 2 ],
					"disabled" : 0,
					"hidden" : 0,
					"source" : [ "obj-35", 2 ]
				}

			}
, 			{
				"patchline" : 				{
					"destination" : [ "obj-40", 1 ],
					"disabled" : 0,
					"hidden" : 0,
					"source" : [ "obj-35", 1 ]
				}

			}
, 			{
				"patchline" : 				{
					"destination" : [ "obj-40", 0 ],
					"disabled" : 0,
					"hidden" : 0,
					"source" : [ "obj-35", 0 ]
				}

			}
, 			{
				"patchline" : 				{
					"destination" : [ "obj-7", 0 ],
					"disabled" : 0,
					"hidden" : 0,
					"source" : [ "obj-62", 0 ]
				}

			}
, 			{
				"patchline" : 				{
					"destination" : [ "obj-22", 0 ],
					"disabled" : 0,
					"hidden" : 0,
					"source" : [ "obj-7", 0 ]
				}

			}
, 			{
				"patchline" : 				{
					"destination" : [ "obj-62", 0 ],
					"disabled" : 0,
					"hidden" : 0,
					"source" : [ "obj-74", 0 ]
				}

			}
, 			{
				"patchline" : 				{
					"destination" : [ "obj-22", 0 ],
					"disabled" : 0,
					"hidden" : 0,
					"source" : [ "obj-9", 0 ]
				}

			}
 ],
		"dependency_cache" : [ 			{
				"name" : "jmod.sur.ambisonics~.maxpat",
				"bootpath" : "/Applications/Max 6.1/Cycling '74/Jamoma/modules/spatialization/sur.ambisonics~",
				"patcherrelativepath" : "../../../Applications/Max 6.1/Cycling '74/Jamoma/modules/spatialization/sur.ambisonics~",
				"type" : "JSON",
				"implicit" : 1
			}
, 			{
				"name" : "jalg.sur.ambisonics~.maxpat",
				"bootpath" : "/Applications/Max 6.1/Cycling '74/Jamoma/modules/spatialization/sur.ambisonics~",
				"patcherrelativepath" : "../../../Applications/Max 6.1/Cycling '74/Jamoma/modules/spatialization/sur.ambisonics~",
				"type" : "JSON",
				"implicit" : 1
			}
, 			{
				"name" : "jcom.message.array.maxpat",
				"bootpath" : "/Applications/Max 6.1/Cycling '74/Jamoma/library/components/message.array",
				"patcherrelativepath" : "../../../Applications/Max 6.1/Cycling '74/Jamoma/library/components/message.array",
				"type" : "JSON",
				"implicit" : 1
			}
, 			{
				"name" : "jcom.message.array.instance.maxpat",
				"bootpath" : "/Applications/Max 6.1/Cycling '74/Jamoma/library/components/message.array",
				"patcherrelativepath" : "../../../Applications/Max 6.1/Cycling '74/Jamoma/library/components/message.array",
				"type" : "JSON",
				"implicit" : 1
			}
, 			{
				"name" : "jcom.ambipanSource.maxpat",
				"bootpath" : "/Applications/Max 6.1/Cycling '74/Jamoma/modules/spatialization/sur.ambipanning~",
				"patcherrelativepath" : "../../../Applications/Max 6.1/Cycling '74/Jamoma/modules/spatialization/sur.ambipanning~",
				"type" : "JSON",
				"implicit" : 1
			}
, 			{
				"name" : "jcom.list2parameter.maxpat",
				"bootpath" : "/Applications/Max 6.1/Cycling '74/Jamoma/library/components/list2parameter",
				"patcherrelativepath" : "../../../Applications/Max 6.1/Cycling '74/Jamoma/library/components/list2parameter",
				"type" : "JSON",
				"implicit" : 1
			}
, 			{
				"name" : "jcom.thru.maxpat",
				"bootpath" : "/Applications/Max 6.1/Cycling '74/Jamoma/library/components/thru",
				"patcherrelativepath" : "../../../Applications/Max 6.1/Cycling '74/Jamoma/library/components/thru",
				"type" : "JSON",
				"implicit" : 1
			}
, 			{
				"name" : "jcom.ambimonitor2position.maxpat",
				"bootpath" : "/Applications/Max 6.1/Cycling '74/Jamoma/library/components/ambimonitor2position",
				"patcherrelativepath" : "../../../Applications/Max 6.1/Cycling '74/Jamoma/library/components/ambimonitor2position",
				"type" : "JSON",
				"implicit" : 1
			}
, 			{
				"name" : "jcom.multi.in~.maxpat",
				"bootpath" : "/Applications/Max 6.1/Cycling '74/Jamoma/library/components/multi.in%",
				"patcherrelativepath" : "../../../Applications/Max 6.1/Cycling '74/Jamoma/library/components/multi.in%",
				"type" : "JSON",
				"implicit" : 1
			}
, 			{
				"name" : "jmod.input~.maxpat",
				"bootpath" : "/Applications/Max 6.1/Cycling '74/Jamoma/modules/audio/input~",
				"patcherrelativepath" : "../../../Applications/Max 6.1/Cycling '74/Jamoma/modules/audio/input~",
				"type" : "JSON",
				"implicit" : 1
			}
, 			{
				"name" : "jcom.audioOnOff.maxpat",
				"bootpath" : "/Applications/Max 6.1/Cycling '74/Jamoma/library/components/audioOnOff",
				"patcherrelativepath" : "../../../Applications/Max 6.1/Cycling '74/Jamoma/library/components/audioOnOff",
				"type" : "JSON",
				"implicit" : 1
			}
, 			{
				"name" : "jcom.meter_receive.maxpat",
				"bootpath" : "/Applications/Max 6.1/Cycling '74/Jamoma/library/components/meter_receive",
				"patcherrelativepath" : "../../../Applications/Max 6.1/Cycling '74/Jamoma/library/components/meter_receive",
				"type" : "JSON",
				"implicit" : 1
			}
, 			{
				"name" : "jcom.multi.out~.maxpat",
				"bootpath" : "/Applications/Max 6.1/Cycling '74/Jamoma/library/components/multi.out%",
				"patcherrelativepath" : "../../../Applications/Max 6.1/Cycling '74/Jamoma/library/components/multi.out%",
				"type" : "JSON",
				"implicit" : 1
			}
, 			{
				"name" : "ambimonitor.mxo",
				"type" : "iLaX"
			}
, 			{
				"name" : "o.route.mxo",
				"type" : "iLaX"
			}
, 			{
				"name" : "jcom.ui.mxo",
				"type" : "iLaX"
			}
, 			{
				"name" : "jcom.parameter.mxo",
				"type" : "iLaX"
			}
, 			{
				"name" : "ambiencode~.mxo",
				"type" : "iLaX"
			}
, 			{
				"name" : "ambidecode~.mxo",
				"type" : "iLaX"
			}
, 			{
				"name" : "jcom.oscroute.mxo",
				"type" : "iLaX"
			}
, 			{
				"name" : "jcom.init.mxo",
				"type" : "iLaX"
			}
, 			{
				"name" : "jcom.dataspace.mxo",
				"type" : "iLaX"
			}
, 			{
				"name" : "jcom.oscinstance.mxo",
				"type" : "iLaX"
			}
, 			{
				"name" : "jcom.pass.mxo",
				"type" : "iLaX"
			}
, 			{
				"name" : "jcom.pack.mxo",
				"type" : "iLaX"
			}
, 			{
				"name" : "jcom.unpack.mxo",
				"type" : "iLaX"
			}
, 			{
				"name" : "jcom.in.mxo",
				"type" : "iLaX"
			}
, 			{
				"name" : "jcom.hub.mxo",
				"type" : "iLaX"
			}
, 			{
				"name" : "jcom.message.mxo",
				"type" : "iLaX"
			}
, 			{
				"name" : "jcom.textslider.mxo",
				"type" : "iLaX"
			}
, 			{
				"name" : "jcom.offset.mxo",
				"type" : "iLaX"
			}
, 			{
				"name" : "jcom.meter~.mxo",
				"type" : "iLaX"
			}
, 			{
				"name" : "jcom.return.mxo",
				"type" : "iLaX"
			}
, 			{
				"name" : "jcom.in~.mxo",
				"type" : "iLaX"
			}
, 			{
				"name" : "jcom.out~.mxo",
				"type" : "iLaX"
			}
, 			{
				"name" : "jcom.remote.mxo",
				"type" : "iLaX"
			}
, 			{
				"name" : "jcom.savebang.mxo",
				"type" : "iLaX"
			}
 ]
	}

}
